<?xml version="1.0" standalone="no"?>
<svg xmlns="http://www.w3.org/2000/svg" viewBox="0 0 230.137 29" width="230.137" height="29"><g fill="#d61216" color="#d61216" transform="translate(0, 0) scale(0.29)"><svg width="100.0" height="100.0" x="0.0" y="0.0" viewBox="0 0 100 100"><g><g><circle cx="97.745" cy="27.719" r="2.256"></circle><circle cx="97.745" cy="34.085" r="2.255"></circle><circle cx="91.379" cy="27.719" r="2.256"></circle><circle cx="91.379" cy="34.085" r="2.255"></circle><circle cx="91.379" cy="72.281" r="2.255"></circle><circle cx="85.014" cy="21.354" r="2.256"></circle><circle cx="85.014" cy="27.719" r="2.256"></circle><circle cx="85.014" cy="34.085" r="2.255"></circle><path d="M85.014,42.707c-1.246,0-2.257-1.011-2.257-2.254c0-1.248,1.011-2.258,2.257-2.258c1.245,0,2.256,1.01,2.256,2.258    C87.27,41.696,86.259,42.707,85.014,42.707z"></path><circle cx="85.014" cy="59.55" r="2.256"></circle><circle cx="85.014" cy="65.915" r="2.255"></circle><circle cx="78.646" cy="27.719" r="2.256"></circle><circle cx="78.646" cy="34.085" r="2.255"></circle><circle cx="78.646" cy="40.451" r="2.255"></circle><circle cx="78.646" cy="46.818" r="2.255"></circle><circle cx="78.646" cy="53.183" r="2.256"></circle><circle cx="78.646" cy="65.915" r="2.255"></circle><circle cx="72.281" cy="21.354" r="2.256"></circle><circle cx="72.281" cy="27.719" r="2.256"></circle><circle cx="72.281" cy="34.085" r="2.255"></circle><path d="M72.281,42.707c-1.245,0-2.256-1.011-2.256-2.256c0-1.245,1.011-2.256,2.256-2.256c1.246,0,2.255,1.01,2.255,2.258    C74.536,41.696,73.527,42.707,72.281,42.707z"></path><circle cx="72.281" cy="46.817" r="2.256"></circle><circle cx="72.281" cy="53.184" r="2.256"></circle><circle cx="65.915" cy="21.354" r="2.256"></circle><circle cx="65.915" cy="27.719" r="2.256"></circle><circle cx="65.915" cy="34.085" r="2.255"></circle><circle cx="65.915" cy="40.45" r="2.256"></circle><circle cx="65.915" cy="46.817" r="2.256"></circle><path d="M59.549,29.976c-1.244,0-2.254-1.012-2.254-2.256c-0.003-1.246,1.01-2.256,2.255-2.256s2.255,1.011,2.255,2.256    C61.805,28.964,60.793,29.976,59.549,29.976z"></path><circle cx="59.55" cy="34.085" r="2.255"></circle><path d="M59.549,42.707c-1.244,0-2.254-1.011-2.254-2.256c-0.003-1.246,1.01-2.256,2.255-2.254c1.245,0,2.255,1.008,2.255,2.254    S60.793,42.707,59.549,42.707z"></path><circle cx="59.549" cy="46.818" r="2.255"></circle><circle cx="53.178" cy="46.818" r="2.255"></circle><circle cx="59.55" cy="53.183" r="2.256"></circle><circle cx="53.184" cy="21.354" r="2.256"></circle><circle cx="53.184" cy="27.719" r="2.256"></circle><circle cx="53.184" cy="34.085" r="2.255"></circle><path d="M53.184,42.707c-1.246,0-2.254-1.011-2.254-2.254c0-1.248,1.008-2.258,2.254-2.258s2.256,1.01,2.256,2.258    C55.439,41.696,54.43,42.707,53.184,42.707z"></path><circle cx="53.184" cy="53.184" r="2.256"></circle><circle cx="53.184" cy="59.55" r="2.256"></circle><circle cx="46.911" cy="59.55" r="2.256"></circle><circle cx="53.184" cy="65.915" r="2.255"></circle><circle cx="46.817" cy="34.085" r="2.255"></circle><circle cx="46.817" cy="40.45" r="2.256"></circle><path d="M46.817,49.073c-1.245,0-2.255-1.01-2.255-2.256s1.009-2.254,2.255-2.254c1.246-0.002,2.255,1.008,2.255,2.254    S48.063,49.073,46.817,49.073z"></path><path d="M40.458,49.073c-1.246,0-2.256-1.01-2.256-2.256s1.009-2.254,2.256-2.254c1.244-0.002,2.253,1.008,2.253,2.254    S41.702,49.073,40.458,49.073z"></path><circle cx="46.817" cy="53.184" r="2.256"></circle><circle cx="40.452" cy="21.354" r="2.256"></circle><circle cx="40.452" cy="27.719" r="2.256"></circle><circle cx="40.452" cy="53.184" r="2.256"></circle><circle cx="34.085" cy="21.354" r="2.256"></circle><circle cx="34.085" cy="27.719" r="2.256"></circle><circle cx="34.085" cy="34.085" r="2.255"></circle><circle cx="34.085" cy="59.55" r="2.256"></circle><circle cx="34.085" cy="65.915" r="2.255"></circle><circle cx="27.72" cy="21.353" r="2.256"></circle><circle cx="27.72" cy="34.085" r="2.255"></circle><circle cx="27.719" cy="40.451" r="2.255"></circle><circle cx="27.72" cy="53.183" r="2.256"></circle><circle cx="27.719" cy="59.55" r="2.256"></circle><circle cx="21.354" cy="59.55" r="2.256"></circle><circle cx="27.72" cy="65.915" r="2.255"></circle><circle cx="27.72" cy="72.281" r="2.255"></circle><circle cx="27.719" cy="78.647" r="2.255"></circle><circle cx="21.353" cy="21.354" r="2.256"></circle><circle cx="21.353" cy="27.719" r="2.256"></circle><circle cx="21.353" cy="34.085" r="2.255"></circle><path d="M21.353,42.707c-1.246,0-2.255-1.011-2.255-2.254c0-1.248,1.009-2.258,2.255-2.258c1.247,0,2.255,1.01,2.255,2.258    C23.608,41.696,22.6,42.707,21.353,42.707z"></path><circle cx="21.353" cy="46.817" r="2.256"></circle><circle cx="21.353" cy="53.184" r="2.256"></circle><circle cx="14.988" cy="21.353" r="2.256"></circle><circle cx="14.988" cy="27.719" r="2.256"></circle><circle cx="14.988" cy="34.085" r="2.255"></circle><circle cx="14.988" cy="40.451" r="2.255"></circle><path d="M14.988,49.073c-1.247,0-2.256-1.009-2.256-2.256c0-1.246,1.009-2.254,2.256-2.254c1.247-0.002,2.256,1.008,2.256,2.254    S16.235,49.073,14.988,49.073z"></path><circle cx="8.622" cy="27.719" r="2.256"></circle><circle cx="8.622" cy="34.085" r="2.255"></circle><circle cx="8.622" cy="40.45" r="2.256"></circle><circle cx="2.256" cy="27.719" r="2.256"></circle><circle cx="2.256" cy="34.085" r="2.255"></circle></g></g></svg></g><line x1="41" y1="1" x2="41" y2="28" stroke="#152452" stroke-linecap="round"></line><path fill="#152452" fill-rule="nonzero" d="M14.83 1.01L16.63 1.01L9.19 17.81L7.44 17.81L0 1.01L1.92 1.01L8.35 15.60L14.83 1.01ZM18.62 17.81L18.62 5.18L20.33 5.18L20.33 17.81L18.62 17.81ZM19.49 2.42Q18.96 2.42 18.60 2.06Q18.24 1.70 18.24 1.20L18.24 1.20Q18.24 0.72 18.60 0.36Q18.96 0 19.49 0L19.49 0Q20.02 0 20.38 0.35Q20.74 0.70 20.74 1.18L20.74 1.18Q20.74 1.70 20.38 2.06Q20.02 2.42 19.49 2.42L19.49 2.42ZM26.71 7.66Q27.31 6.38 28.50 5.74Q29.69 5.09 31.44 5.09L31.44 5.09L31.44 6.74L31.03 6.72Q29.04 6.72 27.91 7.94Q26.78 9.17 26.78 11.38L26.78 11.38L26.78 17.81L25.08 17.81L25.08 5.18L26.71 5.18L26.71 7.66ZM44.38 5.18L46.08 5.18L46.08 17.81L44.45 17.81L44.45 15.50Q43.78 16.66 42.60 17.29Q41.42 17.93 39.91 17.93L39.91 17.93Q37.44 17.93 36.01 16.55Q34.58 15.17 34.58 12.50L34.58 12.50L34.58 5.18L36.29 5.18L36.29 12.34Q36.29 14.33 37.27 15.36Q38.26 16.39 40.08 16.39L40.08 16.39Q42.07 16.39 43.22 15.18Q44.38 13.97 44.38 11.81L44.38 11.81L44.38 5.18ZM54.24 17.93Q52.70 17.93 51.30 17.48Q49.90 17.04 49.10 16.37L49.10 16.37L49.87 15.02Q50.66 15.65 51.86 16.04Q53.06 16.44 54.36 16.44L54.36 16.44Q56.09 16.44 56.92 15.90Q57.74 15.36 57.74 14.38L57.74 14.38Q57.74 13.68 57.29 13.28Q56.83 12.89 56.14 12.68Q55.44 12.48 54.29 12.29L54.29 12.29Q52.75 12 51.82 11.70Q50.88 11.40 50.22 10.68Q49.56 9.96 49.56 8.69L49.56 8.69Q49.56 7.10 50.88 6.10Q52.20 5.09 54.55 5.09L54.55 5.09Q55.78 5.09 57 5.41Q58.22 5.74 59.02 6.26L59.02 6.26L58.27 7.63Q56.71 6.55 54.55 6.55L54.55 6.55Q52.92 6.55 52.09 7.13Q51.26 7.70 51.26 8.64L51.26 8.64Q51.26 9.36 51.73 9.79Q52.20 10.22 52.90 10.43Q53.59 10.63 54.82 10.85L54.82 10.85Q56.33 11.14 57.24 11.42Q58.15 11.71 58.80 12.41Q59.45 13.10 59.45 14.33L59.45 14.33Q59.45 15.98 58.07 16.96Q56.69 17.93 54.24 17.93L54.24 17.93ZM67.58 17.95Q65.71 17.95 64.00 17.35Q62.28 16.75 61.34 15.77L61.34 15.77L62.04 14.40Q62.95 15.31 64.46 15.88Q65.98 16.44 67.58 16.44L67.58 16.44Q69.84 16.44 70.97 15.61Q72.10 14.78 72.10 13.46L72.10 13.46Q72.10 12.46 71.48 11.86Q70.87 11.26 69.98 10.93Q69.10 10.61 67.51 10.22L67.51 10.22Q65.62 9.74 64.49 9.30Q63.36 8.86 62.56 7.94Q61.75 7.03 61.75 5.47L61.75 5.47Q61.75 4.20 62.42 3.16Q63.10 2.11 64.49 1.49Q65.88 0.86 67.94 0.86L67.94 0.86Q69.38 0.86 70.76 1.26Q72.14 1.66 73.15 2.35L73.15 2.35L72.55 3.77Q71.50 3.07 70.30 2.72Q69.10 2.38 67.94 2.38L67.94 2.38Q65.74 2.38 64.62 3.23Q63.50 4.08 63.50 5.42L63.50 5.42Q63.50 6.43 64.12 7.04Q64.73 7.66 65.65 7.98Q66.58 8.30 68.14 8.69L68.14 8.69Q69.98 9.14 71.12 9.59Q72.26 10.03 73.06 10.93Q73.85 11.83 73.85 13.37L73.85 13.37Q73.85 14.64 73.16 15.68Q72.48 16.73 71.06 17.34Q69.65 17.95 67.58 17.95L67.58 17.95ZM77.35 17.81L77.35 5.18L79.06 5.18L79.06 17.81L77.35 17.81ZM78.22 2.42Q77.69 2.42 77.33 2.06Q76.97 1.70 76.97 1.20L76.97 1.20Q76.97 0.72 77.33 0.36Q77.69 0 78.22 0L78.22 0Q78.74 0 79.10 0.35Q79.46 0.70 79.46 1.18L79.46 1.18Q79.46 1.70 79.10 2.06Q78.74 2.42 78.22 2.42L78.22 2.42ZM99.55 5.09Q101.93 5.09 103.28 6.46Q104.64 7.82 104.64 10.49L104.64 10.49L104.64 17.81L102.94 17.81L102.94 10.66Q102.94 8.69 101.99 7.66Q101.04 6.62 99.31 6.62L99.31 6.62Q97.34 6.62 96.22 7.84Q95.09 9.05 95.09 11.18L95.09 11.18L95.09 17.81L93.38 17.81L93.38 10.66Q93.38 8.69 92.44 7.66Q91.49 6.62 89.74 6.62L89.74 6.62Q87.79 6.62 86.65 7.84Q85.51 9.05 85.51 11.18L85.51 11.18L85.51 17.81L83.81 17.81L83.81 5.18L85.44 5.18L85.44 7.49Q86.11 6.34 87.31 5.71Q88.51 5.09 90.07 5.09L90.07 5.09Q91.66 5.09 92.82 5.76Q93.98 6.43 94.56 7.75L94.56 7.75Q95.26 6.50 96.56 5.80Q97.87 5.09 99.55 5.09L99.55 5.09ZM118.94 5.18L120.65 5.18L120.65 17.81L119.02 17.81L119.02 15.50Q118.34 16.66 117.17 17.29Q115.99 17.93 114.48 17.93L114.48 17.93Q112.01 17.93 110.58 16.55Q109.15 15.17 109.15 12.50L109.15 12.50L109.15 5.18L110.86 5.18L110.86 12.34Q110.86 14.33 111.84 15.36Q112.82 16.39 114.65 16.39L114.65 16.39Q116.64 16.39 117.79 15.18Q118.94 13.97 118.94 11.81L118.94 11.81L118.94 5.18ZM128.98 17.93Q127.27 17.93 126.35 16.97Q125.42 16.01 125.42 14.30L125.42 14.30L125.42 0L127.13 0L127.13 14.16Q127.13 15.29 127.66 15.88Q128.18 16.46 129.24 16.46L129.24 16.46Q129.91 16.46 130.39 16.25L130.39 16.25L130.51 17.66Q129.77 17.93 128.98 17.93L128.98 17.93ZM142.42 5.18L144.12 5.18L144.12 17.81L142.49 17.81L142.49 15.31Q141.72 16.58 140.46 17.26Q139.20 17.93 137.62 17.93L137.62 17.93Q135.84 17.93 134.40 17.11Q132.96 16.30 132.14 14.83Q131.33 13.37 131.33 11.50L131.33 11.50Q131.33 9.62 132.14 8.16Q132.96 6.70 134.40 5.89Q135.84 5.09 137.62 5.09L137.62 5.09Q139.15 5.09 140.39 5.72Q141.62 6.36 142.42 7.58L142.42 7.58L142.42 5.18ZM137.76 16.42Q139.08 16.42 140.15 15.80Q141.22 15.19 141.83 14.06Q142.44 12.94 142.44 11.50L142.44 11.50Q142.44 10.06 141.83 8.93Q141.22 7.80 140.15 7.19Q139.08 6.58 137.76 6.58L137.76 6.58Q136.42 6.58 135.35 7.19Q134.28 7.80 133.67 8.93Q133.06 10.06 133.06 11.50L133.06 11.50Q133.06 12.94 133.67 14.06Q134.28 15.19 135.35 15.80Q136.42 16.42 137.76 16.42L137.76 16.42ZM154.49 15.82L155.09 17.04Q154.61 17.47 153.91 17.70Q153.22 17.93 152.45 17.93L152.45 17.93Q150.67 17.93 149.71 16.97Q148.75 16.01 148.75 14.26L148.75 14.26L148.75 2.42L150.46 2.42L150.46 5.18L154.27 5.18L154.27 6.62L150.46 6.62L150.46 14.16Q150.46 15.29 151.01 15.88Q151.56 16.46 152.62 16.46L152.62 16.46Q153.77 16.46 154.49 15.82L154.49 15.82ZM162.89 17.93Q161.06 17.93 159.60 17.10Q158.14 16.27 157.30 14.81Q156.46 13.34 156.46 11.50L156.46 11.50Q156.46 9.65 157.30 8.18Q158.14 6.72 159.60 5.90Q161.06 5.09 162.89 5.09L162.89 5.09Q164.71 5.09 166.18 5.90Q167.64 6.72 168.47 8.18Q169.30 9.65 169.30 11.50L169.30 11.50Q169.30 13.34 168.47 14.81Q167.64 16.27 166.18 17.10Q164.71 17.93 162.89 17.93L162.89 17.93ZM162.89 16.42Q164.23 16.42 165.30 15.80Q166.37 15.19 166.97 14.06Q167.57 12.94 167.57 11.50L167.57 11.50Q167.57 10.06 166.97 8.93Q166.37 7.80 165.30 7.19Q164.23 6.58 162.89 6.58L162.89 6.58Q161.54 6.58 160.48 7.19Q159.41 7.80 158.80 8.93Q158.18 10.06 158.18 11.50L158.18 11.50Q158.18 12.94 158.80 14.06Q159.41 15.19 160.48 15.80Q161.54 16.42 162.89 16.42L162.89 16.42ZM174.41 7.66Q175.01 6.38 176.20 5.74Q177.38 5.09 179.14 5.09L179.14 5.09L179.14 6.74L178.73 6.72Q176.74 6.72 175.61 7.94Q174.48 9.17 174.48 11.38L174.48 11.38L174.48 17.81L172.78 17.81L172.78 5.18L174.41 5.18L174.41 7.66Z" transform="translate(51, 5.596)"></path></svg>